<?xml version="1.0" standalone="no"?><!DOCTYPE svg PUBLIC "-//W3C//DTD SVG 1.1//EN" "http://www.w3.org/Graphics/SVG/1.1/DTD/svg11.dtd"><svg t="1644161402038" class="icon" viewBox="0 0 1024 1024" version="1.1" xmlns="http://www.w3.org/2000/svg" p-id="3432" xmlns:xlink="http://www.w3.org/1999/xlink" width="48" height="48"><defs><style type="text/css"></style></defs><path d="M914.1 959.7H111.9c-25.8 0-46.8-21-46.8-46.8V110.7c0-25.8 21-46.8 46.8-46.8h802.3c25.8 0 46.8 21 46.8 46.8V913c-0.1 25.7-21.1 46.7-46.9 46.7zM111.9 104c-3.7 0-6.7 3-6.7 6.7V913c0 3.7 3 6.7 6.7 6.7h802.3c3.7 0 6.7-3 6.7-6.7V110.7c0-3.7-3-6.7-6.7-6.7H111.9z" fill="#bfbfbf" p-id="3433"></path><path d="M740.3 531.9H285.7c-11.1 0-20.1-9-20.1-20.1 0-11.1 9-20.1 20.1-20.1h454.6c11.1 0 20.1 9 20.1 20.1 0 11.1-9 20.1-20.1 20.1z" fill="#bfbfbf" p-id="3434"></path><path d="M513 759.2c-11.1 0-20.1-9-20.1-20.1V284.5c0-11.1 9-20.1 20.1-20.1 11.1 0 20.1 9 20.1 20.1v454.6c0 11.1-9 20.1-20.1 20.1z" fill="#bfbfbf" p-id="3435"></path></svg>