<?xml version="1.0" standalone="no"?><!DOCTYPE svg PUBLIC "-//W3C//DTD SVG 1.1//EN"
        "http://www.w3.org/Graphics/SVG/1.1/DTD/svg11.dtd">
<svg t="1644935696518" class="icon" viewBox="0 0 1024 1024" version="1.1" xmlns="http://www.w3.org/2000/svg" p-id="6791" width="32" height="32"><path d="M816.782031 265.847787c15.375821 36.07052 24.247235 70.074985 26.612195 102.009302 2.36803 31.934317 0.593543 61.3513-5.319369 88.256066-5.917005 26.909883-14.489601 51.004651-25.728021 72.297606-11.23535 21.287839-22.913811 39.916105-35.037428 55.880705-12.123617 15.9646-23.50633 29.123294-34.153255 39.47506-10.645901 10.347672-18.036529 17.293875-22.176999 20.840654-5.911888 5.323239-11.383736 9.317203-16.41145 11.975752-5.024644 2.664689-9.45984 4.882194-13.306609 6.652514-3.841653 1.77646-7.540037 3.846608-11.087988 6.211469-3.546928 2.364861-7.093856 6.206352-10.641808 11.529591-7.688422 11.234879-13.605427 22.176069-17.741804 32.822546-4.141494 10.641361-7.688422 20.993127-10.646925 31.046087-2.958502 8.277524-6.210706 15.07637-9.758657 20.399609-3.546928 5.323239-7.389604 10.05296-11.530075 14.193257-4.72992 4.729721-9.463933 8.575306-14.193853 11.529591L410.505255 790.967596c-4.72992-2.954285-9.166138-6.798846-13.305586-11.529591-4.140471-4.140297-8.277871-9.463536-12.418342-15.9646-4.141494-6.506181-7.688422-14.786775-10.646925-24.840758-5.911888-17.147542-13.158223-30.898731-21.729796-41.246403-8.576689-10.347672-19.665701-20.551058-33.264987-30.605042-9.464956-7.093559-20.25822-16.558118-32.381837-28.381397-12.123617-11.828396-24.095779-25.722848-35.925695-41.692564-11.828893-15.9646-23.065266-33.851992-33.706051-53.6632-10.646925-19.811208-19.22259-41.545208-25.728021-65.197908-6.50236-23.652699-10.34913-48.934502-11.531098-75.839269-1.181968-26.909883 1.476693-55.145971 7.982123-84.715427 10.053382-47.305399 27.500462-87.074148 52.337146-119.302153 24.839754-32.229029 52.633917-58.104349 83.387605-77.615729 30.748572-19.516496 62.535843-33.56342 95.359767-42.133609 32.817784-8.576329 62.535843-12.863982 89.148038-12.863982 27.794163 0 56.771317 3.841491 86.931464 11.529591 30.163216 7.688099 59.287733 19.664875 87.37662 35.928281 28.094004 16.259312 53.817932 36.95875 77.176899 62.092174C782.926571 200.057385 801.997705 230.366691 816.782031 265.847787zM624.290056 845.966211l0 9.758248c0 2.954285 0.147362 6.206352 0.441063 9.758248 0.294725 3.546779 0.447204 7.093559 0.447204 10.641361-0.594566 11.234879-3.699407 23.505343-9.317594 36.810371-5.617163 13.30605-16.410427 22.916942-32.37672 28.828582-6.505431 2.369977-14.930664 5.770424-25.282864 10.205433-10.348107 4.435009-25.87129 6.652514-46.571596 6.652514-17.741804 0-32.37672-2.071172-43.906795-6.211469-11.535192-4.140297-20.552944-6.79987-27.059398-7.981788-8.277871-1.77646-14.930664-5.470595-19.959402-11.087523-5.024644-5.617951-8.87039-11.975752-11.530075-19.070334-2.663778-7.099698-4.287833-14.341636-4.881375-21.735024-0.589449-7.393387-0.884174-14.045901-0.884174-19.958564l0-27.499307L624.290056 845.966211z" p-id="6792" fill="#bfbfbf"></path></svg>
